<?xml version="1.0" encoding="UTF-8"?>
<svg version="1.1" xmlns="http://www.w3.org/2000/svg" width="229" height="180">
<path d="M0 0 C75.57 0 151.14 0 229 0 C229 59.4 229 118.8 229 180 C153.43 180 77.86 180 0 180 C0 120.6 0 61.2 0 0 Z " fill="#FCFCFC" transform="translate(0,0)"/>
<path d="M0 0 C0.66 0 1.32 0 2 0 C2 0.99 2 1.98 2 3 C2.99 3.33 3.98 3.66 5 4 C5 5.65 5 7.3 5 9 C6.32 9 7.64 9 9 9 C9 7.35 9 5.7 9 4 C9.66 4 10.32 4 11 4 C11 5.65 11 7.3 11 9 C12.32 9 13.64 9 15 9 C15 6.03 15 3.06 15 0 C15.66 0 16.32 0 17 0 C17 2.97 17 5.94 17 9 C20.63 9 24.26 9 28 9 C28 8.01 28 7.02 28 6 C25.69 6 23.38 6 21 6 C21 5.01 21 4.02 21 3 C21.66 3 22.32 3 23 3 C23 2.01 23 1.02 23 0 C23.66 0 24.32 0 25 0 C25 0.99 25 1.98 25 3 C27.475 3.99 27.475 3.99 30 5 C30.495 9.455 30.495 9.455 31 14 C32.32 14 33.64 14 35 14 C34.505 12.515 34.505 12.515 34 11 C34.66 11 35.32 11 36 11 C36 9.35 36 7.7 36 6 C36.433125 6.474375 36.86625 6.94875 37.3125 7.4375 C39.02309613 9.23686957 39.02309613 9.23686957 42 10 C42 8.02 42 6.04 42 4 C41.01 3.67 40.02 3.34 39 3 C40.65 3 42.3 3 44 3 C44 4.98 44 6.96 44 9 C51.92 8.505 51.92 8.505 60 8 C59.505 6.02 59.505 6.02 59 4 C62 2 62 2 65.1875 2.375 C66.115625 2.58125 67.04375 2.7875 68 3 C69 6 69 6 68 9 C69.32 9 70.64 9 72 9 C72.144375 8.360625 72.28875 7.72125 72.4375 7.0625 C73 5 73 5 74 4 C76.9375 3.8125 76.9375 3.8125 80 4 C80.99 4.99 80.99 4.99 82 6 C82.33 4.02 82.66 2.04 83 0 C83.99 0 84.98 0 86 0 C86 2.97 86 5.94 86 9 C89.63 9 93.26 9 97 9 C97 8.01 97 7.02 97 6 C94.69 6 92.38 6 90 6 C90 5.34 90 4.68 90 4 C96.15234375 3.90234375 96.15234375 3.90234375 98 4 C99 5 99 5 99.0625 8.5625 C99.041875 9.696875 99.02125 10.83125 99 12 C98.01 12 97.02 12 96 12 C96 12.99 96 13.98 96 15 C95.34 15 94.68 15 94 15 C94 14.01 94 13.02 94 12 C92.24929483 12.11470137 90.49942464 12.24219028 88.75 12.375 C87.77546875 12.44460937 86.8009375 12.51421875 85.796875 12.5859375 C83.10366811 12.98465249 81.33036721 13.63507063 79 15 C79.99 16.485 79.99 16.485 81 18 C81.78375 17.79375 82.5675 17.5875 83.375 17.375 C84.24125 17.25125 85.1075 17.1275 86 17 C86.99 17.99 86.99 17.99 88 19 C87.625 21.125 87.625 21.125 87 23 C87.66 23 88.32 23 89 23 C89 23.66 89 24.32 89 25 C88.34 25 87.68 25 87 25 C87 26.32 87 27.64 87 29 C88.485 29.495 88.485 29.495 90 30 C88.0625 30.5625 88.0625 30.5625 86 31 C85 30 85 30 84.9375 27.4375 C84.958125 26.633125 84.97875 25.82875 85 25 C84.34 25 83.68 25 83 25 C82.67 26.98 82.34 28.96 82 31 C81.01 31 80.02 31 79 31 C78.505 29.02 78.505 29.02 78 27 C77.67 28.32 77.34 29.64 77 31 C75.35 30.67 73.7 30.34 72 30 C72.66 29.34 73.32 28.68 74 28 C73.01 27.01 73.01 27.01 72 26 C71.01 26 70.02 26 69 26 C68.505 28.475 68.505 28.475 68 31 C63.14742931 31 58.67745094 30.25931371 54 29 C54 29.66 54 30.32 54 31 C53.34 31 52.68 31 52 31 C51.01 28.03 51.01 28.03 50 25 C49.34 25 48.68 25 48 25 C48 26.98 48 28.96 48 31 C46.02 31 44.04 31 42 31 C42 29.02 42 27.04 42 25 C40.515 25.495 40.515 25.495 39 26 C38.505 28.475 38.505 28.475 38 31 C37.34 31 36.68 31 36 31 C35.505 29.515 35.505 29.515 35 28 C34.608125 28.495 34.21625 28.99 33.8125 29.5 C32 31 32 31 29.5625 31.25 C27 31 27 31 24.875 30.375 C24.25625 30.25125 23.6375 30.1275 23 30 C22.01 30.66 21.02 31.32 20 32 C18.09765625 31.72265625 18.09765625 31.72265625 16.0625 31.0625 C12.94664294 30.05990245 11.13196801 29.98403722 8 31 C8 29.02 8 27.04 8 25 C7.34 25 6.68 25 6 25 C6 26.98 6 28.96 6 31 C3.69 31 1.38 31 -1 31 C-1 27.04 -1 23.08 -1 19 C1 19 3 19 5 19 C5.495 19.99 5.495 19.99 6 21 C6.99 19.35 7.98 17.7 9 16 C8.34 15.67 7.68 15.34 7 15 C7 14.34 7 13.68 7 13 C5.95021973 12.98018066 4.90043945 12.96036133 3.81884766 12.93994141 C-0.06893261 12.86397802 -3.95633403 12.77524702 -7.84375 12.68261719 C-9.52759329 12.64428896 -11.21151955 12.60944288 -12.89550781 12.578125 C-15.31345306 12.53255713 -17.73082528 12.47455077 -20.1484375 12.4140625 C-20.9036972 12.40251129 -21.65895691 12.39096008 -22.43710327 12.37905884 C-27.77225659 12.22774341 -27.77225659 12.22774341 -30 10 C-30.1875 6.9375 -30.1875 6.9375 -30 4 C-29 3 -29 3 -25.9375 2.9375 C-24.4834375 2.9684375 -24.4834375 2.9684375 -23 3 C-23 5.31 -23 7.62 -23 10 C-16.4 10 -9.8 10 -3 10 C-3.33 8.35 -3.66 6.7 -4 5 C-2.68 4.34 -1.36 3.68 0 3 C0 2.01 0 1.02 0 0 Z " fill="#E9E9E9" transform="translate(105,80)"/>
<path d="M0 0 C0.680625 0.33 1.36125 0.66 2.0625 1 C7.75840201 2.93903047 12.48635046 2.15166811 18 0 C18 4 18 4 16.625 6.0625 C14.20208116 10.44239176 13.73091945 15.0899411 13 20 C13.99 20 14.98 20 16 20 C16.02578125 19.34773438 16.0515625 18.69546875 16.078125 18.0234375 C16.45801812 12.16962981 17.11257253 8.47643163 21 4 C21.66 4 22.32 4 23 4 C22.23287671 8.60273973 22.23287671 8.60273973 20.9375 10.8125 C19.48448929 14.20285833 19.8777848 17.33354409 20 21 C20.66 21.33 21.32 21.66 22 22 C21.938125 20.80375 21.87625 19.6075 21.8125 18.375 C21.79056063 14.26502405 22.86869566 11.5521739 25 8 C25.99 8.33 26.98 8.66 28 9 C27.67 9.639375 27.34 10.27875 27 10.9375 C25.33409084 16.03934682 25.33409084 20.96065318 27 26.0625 C27.33 26.701875 27.66 27.34125 28 28 C23.59974304 28 22.58414268 27.27287097 19 25 C15.36797889 23.32368257 11.95783214 22.55225565 8 22 C8 22.99 8 23.98 8 25 C9.7325 25.12375 9.7325 25.12375 11.5 25.25 C16.22127498 25.81486683 19.9106739 27.66168853 24 30 C23.505 31.485 23.505 31.485 23 33 C18 31 18 31 15.625 29.9375 C12.44341697 28.80122035 9.34711199 28.39377788 6 28 C6 28.99 6 29.98 6 31 C7.546875 30.9071875 7.546875 30.9071875 9.125 30.8125 C13.23468973 31.01135595 15.48882496 31.94467803 19 34 C19 34.99 19 35.98 19 37 C16.83125748 36.49396008 15.00032373 36.00016187 13 35 C8.05730019 34.7569164 4.50990242 34.74504879 0 37 C0 33.12258477 0.13587977 32.35314659 1.9375 29.25 C4.13625235 25.11665636 4.66797043 21.64841404 5 17 C4.01 17 3.02 17 2 17 C2.12375 18.485 2.12375 18.485 2.25 20 C2.25919719 24.50662114 0.64478104 28.37337717 -2 32 C-3.485 32.495 -3.485 32.495 -5 33 C-4.34122452 28.6520818 -2.72535435 25.02582681 -1 21 C-0.30859478 18.22111387 -0.30859478 18.22111387 0 16 C-1.32 15.67 -2.64 15.34 -4 15 C-3.938125 16.19625 -3.87625 17.3925 -3.8125 18.625 C-3.79056063 22.73497595 -4.86869566 25.4478261 -7 29 C-7.66 29 -8.32 29 -9 29 C-8.835 28.38125 -8.67 27.7625 -8.5 27.125 C-7.51938995 20.99618719 -6.99946094 14.62601074 -10 9 C-6.63074034 9.42115746 -4.08061407 10.41293875 -1.125 12 C2.64682644 13.97913327 5.77138797 14.64761566 10 15 C10 14.01 10 13.02 10 12 C9.41992188 11.97421875 8.83984375 11.9484375 8.2421875 11.921875 C2.684259 11.51832904 -0.75769616 10.69841873 -5 7 C-5 6.01 -5 5.02 -5 4 C0 6 0 6 2.375 7.0625 C5.55658303 8.19877965 8.65288801 8.60622212 12 9 C12 8.34 12 7.68 12 7 C11.39671875 6.90203125 10.7934375 6.8040625 10.171875 6.703125 C5.29421718 5.79053096 2.16176612 5.12404277 -1 1 C-0.67 0.67 -0.34 0.34 0 0 Z " fill="#215099" transform="translate(37,77)"/>
<path d="M0 0 C0.66 0 1.32 0 2 0 C2 0.99 2 1.98 2 3 C2.99 3.33 3.98 3.66 5 4 C5 5.65 5 7.3 5 9 C6.32 9 7.64 9 9 9 C9 7.35 9 5.7 9 4 C9.66 4 10.32 4 11 4 C11 5.65 11 7.3 11 9 C12.32 9 13.64 9 15 9 C15 6.03 15 3.06 15 0 C15.66 0 16.32 0 17 0 C17 2.97 17 5.94 17 9 C20.63 9 24.26 9 28 9 C28 8.01 28 7.02 28 6 C25.69 6 23.38 6 21 6 C21 5.01 21 4.02 21 3 C21.66 3 22.32 3 23 3 C23 2.01 23 1.02 23 0 C23.66 0 24.32 0 25 0 C25 0.99 25 1.98 25 3 C27.475 3.99 27.475 3.99 30 5 C30 6.98 30 8.96 30 11 C11.19 11 -7.62 11 -27 11 C-26.01 10.67 -25.02 10.34 -24 10 C-24 8.35 -24 6.7 -24 5 C-25.32 4.67 -26.64 4.34 -28 4 C-26.35 3.67 -24.7 3.34 -23 3 C-23 5.31 -23 7.62 -23 10 C-16.4 10 -9.8 10 -3 10 C-3.33 8.35 -3.66 6.7 -4 5 C-2.68 4.34 -1.36 3.68 0 3 C0 2.01 0 1.02 0 0 Z " fill="#161616" transform="translate(105,80)"/>
<path d="M0 0 C0.928125 0.20625 1.85625 0.4125 2.8125 0.625 C3.8125 3.625 3.8125 3.625 2.8125 6.625 C4.1325 6.625 5.4525 6.625 6.8125 6.625 C6.956875 5.985625 7.10125 5.34625 7.25 4.6875 C7.8125 2.625 7.8125 2.625 8.8125 1.625 C11.75 1.4375 11.75 1.4375 14.8125 1.625 C15.4725 2.285 16.1325 2.945 16.8125 3.625 C16.25694444 8.18055556 16.25694444 8.18055556 14.8125 9.625 C13.46037309 9.6884834 12.10485963 9.68223393 10.75170898 9.64672852 C9.89089218 9.62663223 9.03007538 9.60653595 8.14317322 9.58583069 C7.20776199 9.55879562 6.27235077 9.53176056 5.30859375 9.50390625 C3.87907127 9.46848976 3.87907127 9.46848976 2.42066956 9.43235779 C-0.63636421 9.35551613 -3.69315758 9.27158053 -6.75 9.1875 C-8.81704536 9.13429982 -10.8841026 9.08155931 -12.95117188 9.02929688 C-18.03010141 8.89987338 -23.10882624 8.76408558 -28.1875 8.625 C-28.5175 6.975 -28.8475 5.325 -29.1875 3.625 C-28.754375 4.099375 -28.32125 4.57375 -27.875 5.0625 C-26.16440387 6.86186957 -26.16440387 6.86186957 -23.1875 7.625 C-23.1875 5.645 -23.1875 3.665 -23.1875 1.625 C-24.1775 1.295 -25.1675 0.965 -26.1875 0.625 C-24.5375 0.625 -22.8875 0.625 -21.1875 0.625 C-21.1875 2.605 -21.1875 4.585 -21.1875 6.625 C-13.2675 6.13 -13.2675 6.13 -5.1875 5.625 C-5.5175 4.305 -5.8475 2.985 -6.1875 1.625 C-3.1875 -0.375 -3.1875 -0.375 0 0 Z " fill="#474747" transform="translate(170.1875,82.375)"/>
<path d="M0 0 C2 0 4 0 6 0 C6.33 0.66 6.66 1.32 7 2 C7.598125 1.67 8.19625 1.34 8.8125 1 C11 0 11 0 14 0 C14 0.66 14 1.32 14 2 C13.01 2.495 13.01 2.495 12 3 C12.33 3.99 12.66 4.98 13 6 C12.34 6 11.68 6 11 6 C11 7.98 11 9.96 11 12 C10.34 12 9.68 12 9 12 C9 10.02 9 8.04 9 6 C8.34 6 7.68 6 7 6 C7 7.98 7 9.96 7 12 C4.69 12 2.38 12 0 12 C0 8.04 0 4.08 0 0 Z " fill="#616161" transform="translate(104,99)"/>
<path d="M0 0 C0.61875 0.185625 1.2375 0.37125 1.875 0.5625 C4.04160178 1.23686176 4.04160178 1.23686176 6 0 C6.66 1.65 7.32 3.3 8 5 C7.01 4.67 6.02 4.34 5 4 C4.2575 4.309375 3.515 4.61875 2.75 4.9375 C-1.66048831 6.6415523 -5.48423533 6.51600499 -9.9375 5 C-10.618125 4.67 -11.29875 4.34 -12 4 C-9.5546615 6.96527758 -7.55397653 7.55582214 -3.8125 8.1875 C-2.91144531 8.34605469 -2.01039062 8.50460938 -1.08203125 8.66796875 C-0.05142578 8.83232422 -0.05142578 8.83232422 1 9 C0.67 9.99 0.34 10.98 0 12 C-6.07328688 12.50610724 -9.77228537 11.04157942 -15 8 C-15 6.02 -15 4.04 -15 2 C-10.69390005 0.73350002 -8.1169252 1.2995309 -4 3 C-3.01 3.66 -2.02 4.32 -1 5 C-0.67 3.35 -0.34 1.7 0 0 Z " fill="#DCF1FC" transform="translate(49,74)"/>
<path d="M0 0 C5.7837828 -0.4819819 10.31076505 0.37600109 15 4 C16.5 7.25 16.5 7.25 17 10 C16.01 10.66 15.02 11.32 14 12 C14.33 12.66 14.66 13.32 15 14 C13.125 14.625 13.125 14.625 11 15 C8.64046906 12.64046906 8.50858587 11.22104383 8 8 C7.01 8.33 6.02 8.66 5 9 C1.8125 8.0625 1.8125 8.0625 -1 7 C-1 6.67 -1 6.34 -1 6 C4.67276511 5.70658112 7.99067246 5.99440348 13 9 C13 8.01 13 7.02 13 6 C8.67435795 4.41744803 4.571279 3.54855348 0 3 C0 2.01 0 1.02 0 0 Z " fill="#F2FBFA" transform="translate(43,105)"/>
<path d="M0 0 C2.475 0.99 2.475 0.99 5 2 C5 3.65 5 5.3 5 7 C22.82 7.33 40.64 7.66 59 8 C59 8.33 59 8.66 59 9 C51.4723122 9.0462929 43.94463912 9.08185365 36.41684151 9.10362434 C32.92156073 9.11407198 29.42637717 9.12824883 25.93115234 9.15087891 C21.91502944 9.17671953 17.89900903 9.18646466 13.8828125 9.1953125 C11.99527756 9.21079636 11.99527756 9.21079636 10.0696106 9.22659302 C8.90855804 9.22674408 7.74750549 9.22689514 6.55126953 9.22705078 C5.52534698 9.231492 4.49942444 9.23593323 3.44241333 9.24050903 C1 9 1 9 -1 7 C-1.1875 3.9375 -1.1875 3.9375 -1 1 C-0.67 0.67 -0.34 0.34 0 0 Z " fill="#9F9F9F" transform="translate(76,83)"/>
<path d="M0 0 C0.99 0 1.98 0 3 0 C3.4143687 5.80116175 2.81356189 9.20803469 -0.125 14.23828125 C-1.2224145 16.11996642 -1.2224145 16.11996642 -1 19 C0.32 18.67 1.64 18.34 3 18 C3 18.99 3 19.98 3 21 C2.01 21 1.02 21 0 21 C0 22.32 0 23.64 0 25 C-0.66 25 -1.32 25 -2 25 C-2 24.01 -2 23.02 -2 22 C-3.32 21.67 -4.64 21.34 -6 21 C-6.75 18.75 -6.75 18.75 -7 16 C-5.1875 14 -5.1875 14 -3 12 C-1.01258088 8.12976277 -0.50542196 4.29608662 0 0 Z " fill="#E3ECF8" transform="translate(39,94)"/>
<path d="M0 0 C0.66 0 1.32 0 2 0 C1.67 1.65 1.34 3.3 1 5 C2.32 5 3.64 5 5 5 C5.144375 4.360625 5.28875 3.72125 5.4375 3.0625 C6 1 6 1 7 0 C9.9375 -0.1875 9.9375 -0.1875 13 0 C13.66 0.66 14.32 1.32 15 2 C14.44444444 6.55555556 14.44444444 6.55555556 13 8 C10.46458702 7.90913549 7.96445216 7.7629055 5.4375 7.5625 C4.72658203 7.51029297 4.01566406 7.45808594 3.28320312 7.40429688 C1.52178001 7.27425893 -0.23916173 7.13773103 -2 7 C-1.34 4.69 -0.68 2.38 0 0 Z " fill="#292929" transform="translate(172,84)"/>
<path d="M0 0 C1.1446875 0.2784375 1.1446875 0.2784375 2.3125 0.5625 C5.08967375 1.22819173 5.08967375 1.22819173 8 0 C8.66 0.99 9.32 1.98 10 3 C9.67 3.99 9.34 4.98 9 6 C9.66 6 10.32 6 11 6 C11.08226668 9.04386724 10.97608217 11.07175348 10 14 C9.34 14 8.68 14 8 14 C7.67 14.66 7.34 15.32 7 16 C6.34 15.67 5.68 15.34 5 15 C4.5859375 12.71484375 4.5859375 12.71484375 4.375 9.9375 C4.30023438 9.01839844 4.22546875 8.09929687 4.1484375 7.15234375 C4.09945312 6.44207031 4.05046875 5.73179688 4 5 C2.35 4.67 0.7 4.34 -1 4 C-0.67 2.68 -0.34 1.36 0 0 Z " fill="#EFEFEF" transform="translate(130,80)"/>
<path d="M0 0 C0.86625 0.556875 0.86625 0.556875 1.75 1.125 C1.42 2.445 1.09 3.765 0.75 5.125 C1.41 5.125 2.07 5.125 2.75 5.125 C2.75 5.785 2.75 6.445 2.75 7.125 C2.09 7.125 1.43 7.125 0.75 7.125 C0.75 8.445 0.75 9.765 0.75 11.125 C1.74 11.455 2.73 11.785 3.75 12.125 C1.8125 12.6875 1.8125 12.6875 -0.25 13.125 C-1.25 12.125 -1.25 12.125 -1.3125 9.5625 C-1.291875 8.758125 -1.27125 7.95375 -1.25 7.125 C-1.91 7.125 -2.57 7.125 -3.25 7.125 C-3.58 9.105 -3.91 11.085 -4.25 13.125 C-4.91 13.125 -5.57 13.125 -6.25 13.125 C-6.25 9.125 -6.25 5.125 -6.25 1.125 C-2.80384615 -1.09038462 -2.80384615 -1.09038462 0 0 Z " fill="#929292" transform="translate(191.25,97.875)"/>
<path d="M0 0 C0.99 0.33 1.98 0.66 3 1 C2.67 1.639375 2.34 2.27875 2 2.9375 C0.33409084 8.03934682 0.33409084 12.96065318 2 18.0625 C2.33 18.701875 2.66 19.34125 3 20 C-1.26649636 20 -2.63316085 19.43160605 -6 17 C-6 16.34 -6 15.68 -6 15 C-4.68 15 -3.36 15 -2 15 C-2.33 14.34 -2.66 13.68 -3 13 C-3.40454244 7.74094829 -2.66166853 4.54701708 0 0 Z " fill="#1D4C90" transform="translate(62,85)"/>
<path d="M0 0 C2.92879371 0.62759865 5.36095629 1.58622659 8 3 C7.67 4.32 7.34 5.64 7 7 C6.01 6.67 5.02 6.34 4 6 C2.23384882 10.70973649 1.51405169 15.03083364 1 20 C0.01 19.67 -0.98 19.34 -2 19 C-2.48736475 12.29873464 -1.07708804 7.93438408 2 2 C1.34 2 0.68 2 0 2 C0 1.34 0 0.68 0 0 Z " fill="#D7ECFB" transform="translate(58,79)"/>
<path d="M0 0 C0.66 0 1.32 0 2 0 C2 2.97 2 5.94 2 9 C5.63 9 9.26 9 13 9 C13 8.01 13 7.02 13 6 C10.69 6 8.38 6 6 6 C6 5.34 6 4.68 6 4 C12.15234375 3.90234375 12.15234375 3.90234375 14 4 C15 5 15 5 15 11 C10.05 11 5.1 11 0 11 C0 7.37 0 3.74 0 0 Z " fill="#282828" transform="translate(189,80)"/>
<path d="M0 0 C0.66 0 1.32 0 2 0 C2 0.99 2 1.98 2 3 C2.99 3.33 3.98 3.66 5 4 C5 5.65 5 7.3 5 9 C6.32 9.33 7.64 9.66 9 10 C4.80838094 10 1.11142314 9.86556277 -3 9 C-3.33 7.68 -3.66 6.36 -4 5 C-2.68 4.34 -1.36 3.68 0 3 C0 2.01 0 1.02 0 0 Z " fill="#393939" transform="translate(105,80)"/>
<path d="M0 0 C0.969375 0.78375 1.93875 1.5675 2.9375 2.375 C7.02790658 5.33383919 11.07008811 6.25101112 16 7 C16 7.99 16 8.98 16 10 C8.39164597 10.6340295 2.82475253 7.85396045 -3 3 C-2.01 2.67 -1.02 2.34 0 2 C0 1.34 0 0.68 0 0 Z " fill="#D6EEF8" transform="translate(31,82)"/>
<path d="M0 0 C1.32 0 2.64 0 4 0 C6 3 6 3 6 12 C12.27 12 18.54 12 25 12 C25 12.33 25 12.66 25 13 C18.4 13 11.8 13 5 13 C5 10.69 5 8.38 5 6 C2.03 5.505 2.03 5.505 -1 5 C-0.67 3.35 -0.34 1.7 0 0 Z " fill="#8E8E8E" transform="translate(77,77)"/>
<path d="M0 0 C1.32 0.33 2.64 0.66 4 1 C3.55643705 7.20988129 2.08467498 11.60540561 -1 17 C-1.33 16.34 -1.66 15.68 -2 15 C-2.66 14.67 -3.32 14.34 -4 14 C-3.525625 13.175 -3.05125 12.35 -2.5625 11.5 C-0.76430401 7.47204099 -0.3765745 4.36826421 0 0 Z " fill="#DAEBF8" transform="translate(33,92)"/>
<path d="M0 0 C0.66 0 1.32 0 2 0 C2.33 0.99 2.66 1.98 3 3 C3.99 2.01 4.98 1.02 6 0 C6.99 0.33 7.98 0.66 9 1 C7.515 2.485 7.515 2.485 6 4 C6.309375 4.598125 6.61875 5.19625 6.9375 5.8125 C8 8 8 8 9 11 C7.0625 10.1875 7.0625 10.1875 5 9 C4.67 8.01 4.34 7.02 4 6 C3.34 6 2.68 6 2 6 C2 7.65 2 9.3 2 11 C1.34 11 0.68 11 0 11 C0 7.37 0 3.74 0 0 Z " fill="#252524" transform="translate(75,100)"/>
<path d="M0 0 C0 0.66 0 1.32 0 2 C-0.99 2 -1.98 2 -3 2 C-2.9175 2.99 -2.835 3.98 -2.75 5 C-2.74080281 9.50662114 -4.35521896 13.37337717 -7 17 C-7.99 17.33 -8.98 17.66 -10 18 C-9.34122452 13.6520818 -7.72535435 10.02582681 -6 6 C-5.814375 5.05125 -5.62875 4.1025 -5.4375 3.125 C-5.293125 2.42375 -5.14875 1.7225 -5 1 C-3 0 -3 0 0 0 Z " fill="#1A4992" transform="translate(42,92)"/>
<path d="M0 0 C1.1875 1.5625 1.1875 1.5625 2 4 C1.07989717 6.3659787 0.07136051 8.69855891 -1 11 C-1.39764263 12.98821313 -1.75455166 14.98732362 -2 17 C-2.99 17 -3.98 17 -5 17 C-5.34937311 11.41003031 -4.52472638 7.03787145 -2 2 C-1.34 1.34 -0.68 0.68 0 0 Z " fill="#D6F1FD" transform="translate(55,80)"/>
<path d="M0 0 C0.61875 0.185625 1.2375 0.37125 1.875 0.5625 C4.04160178 1.23686176 4.04160178 1.23686176 6 0 C6.66 1.65 7.32 3.3 8 5 C7.01 4.67 6.02 4.34 5 4 C4.2575 4.309375 3.515 4.61875 2.75 4.9375 C-0.75601143 6.29209532 -3.26579301 6.40009361 -7 6 C-9.9375 4 -9.9375 4 -12 2 C-10 1 -10 1 -7.0625 1.8125 C-4 3 -4 3 -1 5 C-0.67 3.35 -0.34 1.7 0 0 Z " fill="#DEEEF8" transform="translate(49,74)"/>
<path d="M0 0 C5.90359781 -0.49196648 10.04091853 0.68588214 15 4 C15.33 4.66 15.66 5.32 16 6 C15.34 6 14.68 6 14 6 C13.67 6.99 13.34 7.98 13 9 C13 8.01 13 7.02 13 6 C8.67435795 4.41744803 4.571279 3.54855348 0 3 C0 2.01 0 1.02 0 0 Z " fill="#D3E8F8" transform="translate(43,105)"/>
<path d="M0 0 C0.66 0 1.32 0 2 0 C2 2.97 2 5.94 2 9 C3.32 8.67 4.64 8.34 6 8 C6.33 5.36 6.66 2.72 7 0 C7.66 0 8.32 0 9 0 C9.05399736 1.45792884 9.09279177 2.91642712 9.125 4.375 C9.14820313 5.18710938 9.17140625 5.99921875 9.1953125 6.8359375 C9 9 9 9 7 11 C4.5 11.25 4.5 11.25 2 11 C0 9 0 9 -0.1953125 6.8359375 C-0.17210937 6.02382812 -0.14890625 5.21171875 -0.125 4.375 C-0.10695312 3.55773437 -0.08890625 2.74046875 -0.0703125 1.8984375 C-0.04710937 1.27195312 -0.02390625 0.64546875 0 0 Z " fill="#1D1D1D" transform="translate(130,100)"/>
<path d="M0 0 C0.99 0 1.98 0 3 0 C3.3152595 5.98993047 2.68219822 9.63560356 0 15 C-0.99 14.67 -1.98 14.34 -3 14 C-2.01 9.38 -1.02 4.76 0 0 Z " fill="#CFE8F5" transform="translate(39,94)"/>
<path d="M0 0 C2.31 0 4.62 0 7 0 C7 1.98 7 3.96 7 6 C6.01 6 5.02 6 4 6 C3.34 8.31 2.68 10.62 2 13 C4.97 13.495 4.97 13.495 8 14 C4.91190305 15.76462683 3.76687864 16 0 16 C0.33 12.04 0.66 8.08 1 4 C2.65 4 4.3 4 6 4 C6 3.01 6 2.02 6 1 C4.02 1 2.04 1 0 1 C0 0.67 0 0.34 0 0 Z " fill="#2A64AE" transform="translate(41,88)"/>
<path d="M0 0 C0.66 0 1.32 0 2 0 C1.34122452 4.3479182 -0.27464565 7.97417319 -2 12 C-2.69140522 14.77888613 -2.69140522 14.77888613 -3 17 C-3.66 17 -4.32 17 -5 17 C-5.41628689 10.20064747 -3.75173625 5.62760438 0 0 Z " fill="#27498F" transform="translate(58,81)"/>
<path d="M0 0 C2.125 0.375 2.125 0.375 4 1 C5.125 5.75 5.125 5.75 4 8 C1.03 7.505 1.03 7.505 -2 7 C-2.125 4.625 -2.125 4.625 -2 2 C-1.34 1.34 -0.68 0.68 0 0 Z " fill="#3C3C3C" transform="translate(165,103)"/>
<path d="M0 0 C0.66 0 1.32 0 2 0 C2.33 1.32 2.66 2.64 3 4 C3.66 4 4.32 4 5 4 C5.33 2.68 5.66 1.36 6 0 C6.66 0 7.32 0 8 0 C6.68938409 4.23429756 5.05643741 8.07407404 3 12 C2.34 12 1.68 12 1 12 C1.20625 11.071875 1.4125 10.14375 1.625 9.1875 C2.36692966 5.84826598 2.36692966 5.84826598 0 3 C0 2.01 0 1.02 0 0 Z " fill="#252525" transform="translate(196,103)"/>
<path d="M0 0 C4.97093824 0.41153737 9.44508386 0.79600832 14 3 C11.56661348 4.53508028 10.32875493 5.03088304 7.421875 4.7578125 C6.09929688 4.44457031 6.09929688 4.44457031 4.75 4.125 C3.85796875 3.92132813 2.9659375 3.71765625 2.046875 3.5078125 C1.37140625 3.34023437 0.6959375 3.17265625 0 3 C0 2.01 0 1.02 0 0 Z " fill="#D0E8F5" transform="translate(45,99)"/>
<path d="M0 0 C2.97 0.495 2.97 0.495 6 1 C6 3.31 6 5.62 6 8 C4.02 8 2.04 8 0 8 C-0.33 6.68 -0.66 5.36 -1 4 C-0.34 4 0.32 4 1 4 C1 4.66 1 5.32 1 6 C1.99 6 2.98 6 4 6 C4 5.34 4 4.68 4 4 C2.68 3.34 1.36 2.68 0 2 C0 1.34 0 0.68 0 0 Z " fill="#232323" transform="translate(119,103)"/>
<path d="M0 0 C2.875 -0.125 2.875 -0.125 6 0 C8 2 8 2 8.125 5.125 C8.08375 6.07375 8.0425 7.0225 8 8 C7.34 8 6.68 8 6 8 C6 6.02 6 4.04 6 2 C5.01 2.33 4.02 2.66 3 3 C2.67 4.65 2.34 6.3 2 8 C1.34 8 0.68 8 0 8 C0 5.36 0 2.72 0 0 Z " fill="#1E1E1E" transform="translate(141,103)"/>
<path d="M0 0 C0.66 0 1.32 0 2 0 C2 0.99 2 1.98 2 3 C3.65 3.33 5.3 3.66 7 4 C7 6.31 7 8.62 7 11 C6.67 11 6.34 11 6 11 C6 9.02 6 7.04 6 5 C4.68 5 3.36 5 2 5 C2 6.98 2 8.96 2 11 C1.34 11 0.68 11 0 11 C0 7.37 0 3.74 0 0 Z " fill="#161616" transform="translate(86,100)"/>
<path d="M0 0 C0 3.63 0 7.26 0 11 C-0.66 11 -1.32 11 -2 11 C-3.38938077 9.03852126 -4.7260411 7.03833424 -6 5 C-1.125 0 -1.125 0 0 0 Z " fill="#F0F0F0" transform="translate(86,100)"/>
<path d="M0 0 C0.66 0 1.32 0 2 0 C3.21977329 2.43954658 3.20153813 4.15305849 3.25 6.875 C3.27578125 7.73867187 3.3015625 8.60234375 3.328125 9.4921875 C2.94108924 12.45024649 1.95124005 13.79201784 0 16 C-0.66 14.68 -1.32 13.36 -2 12 C-1.34 11.01 -0.68 10.02 0 9 C0.24107326 6.71351152 0.24107326 6.71351152 0.125 4.3125 C0.10695313 3.50425781 0.08890625 2.69601563 0.0703125 1.86328125 C0.04710937 1.24839844 0.02390625 0.63351563 0 0 Z " fill="#E0F0F9" transform="translate(27,89)"/>
<path d="M0 0 C0.99 0 1.98 0 3 0 C3 0.66 3 1.32 3 2 C2.01 2.495 2.01 2.495 1 3 C1.33 3.99 1.66 4.98 2 6 C1.34 6 0.68 6 0 6 C0 7.98 0 9.96 0 12 C-0.66 12 -1.32 12 -2 12 C-2 10.02 -2 8.04 -2 6 C-2.66 6 -3.32 6 -4 6 C-4 5.34 -4 4.68 -4 4 C-3.34 4 -2.68 4 -2 4 C-1.34 2.68 -0.68 1.36 0 0 Z " fill="#101010" transform="translate(115,99)"/>
<path d="M0 0 C2.475 0.99 2.475 0.99 5 2 C5 3.65 5 5.3 5 7 C3.34385343 7.38218767 1.67542976 7.71395102 0 8 C-1 7 -1 7 -1.125 4 C-1 1 -1 1 0 0 Z " fill="#827F7E" transform="translate(76,83)"/>
<path d="M0 0 C4.875 0.875 4.875 0.875 6 2 C6.04080783 3.99958364 6.04254356 6.00045254 6 8 C4.02 8 2.04 8 0 8 C-0.33 7.01 -0.66 6.02 -1 5 C1.475 5.495 1.475 5.495 4 6 C4 5.34 4 4.68 4 4 C3.01 3.67 2.02 3.34 1 3 C0.67 2.01 0.34 1.02 0 0 Z " fill="#202020" transform="translate(96,103)"/>
<path d="M0 0 C1.32 0 2.64 0 4 0 C4 2.31 4 4.62 4 7 C7.96 7 11.92 7 16 7 C16 7.33 16 7.66 16 8 C10.06 8 4.12 8 -2 8 C-2.33 6.35 -2.66 4.7 -3 3 C-2.566875 3.474375 -2.13375 3.94875 -1.6875 4.4375 C0.02309613 6.23686957 0.02309613 6.23686957 3 7 C3 5.02 3 3.04 3 1 C2.01 0.67 1.02 0.34 0 0 Z " fill="#080808" transform="translate(144,83)"/>
<path d="M0 0 C3.79303725 1.00193437 6.71536341 1.81024227 10 4 C9.67 4.99 9.34 5.98 9 7 C5.66666667 5.66666667 2.33333333 4.33333333 -1 3 C-0.67 2.01 -0.34 1.02 0 0 Z " fill="#2C5997" transform="translate(51,103)"/>
<path d="M0 0 C0.66 0 1.32 0 2 0 C2.29341888 5.67276511 2.00559652 8.99067246 -1 14 C-1.66 14 -2.32 14 -3 14 C-2.09276387 9.31261335 -1.0452733 4.65806256 0 0 Z " fill="#1E4483" transform="translate(31,92)"/>
<path d="M0 0 C0.66 0 1.32 0 2 0 C2 0.66 2 1.32 2 2 C2.66 2 3.32 2 4 2 C4 2.66 4 3.32 4 4 C3.34 4 2.68 4 2 4 C2 5.32 2 6.64 2 8 C2.99 8.33 3.98 8.66 5 9 C3.0625 9.5625 3.0625 9.5625 1 10 C0 9 0 9 -0.0625 6.4375 C-0.041875 5.633125 -0.02125 4.82875 0 4 C-0.66 4 -1.32 4 -2 4 C-2 3.34 -2 2.68 -2 2 C-1.34 2 -0.68 2 0 2 C0 1.34 0 0.68 0 0 Z " fill="#1D1D1D" transform="translate(190,101)"/>
<path d="M0 0 C1.98 0 3.96 0 6 0 C6.33 1.65 6.66 3.3 7 5 C5.02 5.99 3.04 6.98 1 8 C0.67 7.34 0.34 6.68 0 6 C0.66 5.01 1.32 4.02 2 3 C1.34 2.67 0.68 2.34 0 2 C0 1.34 0 0.68 0 0 Z " fill="#AFAFAF" transform="translate(112,93)"/>
<path d="M0 0 C5 2 5 2 7.4375 3.0625 C10.27714594 4.10139486 13.01093625 4.58292134 16 5 C16 5.33 16 5.66 16 6 C14.08404032 6.08133791 12.16708068 6.13934367 10.25 6.1875 C8.64898437 6.23970703 8.64898437 6.23970703 7.015625 6.29296875 C3.67150926 5.96808704 2.31289658 5.40833164 0 3 C0 2.01 0 1.02 0 0 Z " fill="#2D5395" transform="translate(32,81)"/>
<path d="M0 0 C0.33 0 0.66 0 1 0 C1.28571429 8.57142857 1.28571429 8.57142857 -1 12 C-1 9.36 -1 6.72 -1 4 C-4.3 4 -7.6 4 -11 4 C-11 3.34 -11 2.68 -11 2 C-7.7 2 -4.4 2 -1 2 C-0.67 1.34 -0.34 0.68 0 0 Z " fill="#104291" transform="translate(49,84)"/>
<path d="M0 0 C1.67542976 0.28604898 3.34385343 0.61781233 5 1 C5 2.98 5 4.96 5 7 C3.125 6.8125 3.125 6.8125 1 6 C-0.25 3.4375 -0.25 3.4375 -1 1 C-0.67 0.67 -0.34 0.34 0 0 Z " fill="#919191" transform="translate(142,83)"/>
<path d="M0 0 C1.625 2 1.625 2 3 4 C-1.75 6.875 -1.75 6.875 -4 8 C-4 6.68 -4 5.36 -4 4 C-4.66 3.67 -5.32 3.34 -6 3 C-2.25 0 -2.25 0 0 0 Z " fill="#E7E6E6" transform="translate(81,96)"/>
<path d="M0 0 C0.99 0.33 1.98 0.66 3 1 C2.690625 1.680625 2.38125 2.36125 2.0625 3.0625 C0.86629351 6.36965912 0.40994603 9.51545878 0 13 C-0.33 13 -0.66 13 -1 13 C-1 11.35 -1 9.7 -1 8 C-1.66 8 -2.32 8 -3 8 C-1.125 2.25 -1.125 2.25 0 0 Z " fill="#32569B" transform="translate(62,85)"/>
<path d="M0 0 C0.66 0 1.32 0 2 0 C2 0.99 2 1.98 2 3 C4.475 3.99 4.475 3.99 7 5 C6.34 6.32 5.68 7.64 5 9 C5 8.01 5 7.02 5 6 C2.69 6 0.38 6 -2 6 C-2 5.01 -2 4.02 -2 3 C-1.34 3 -0.68 3 0 3 C0 2.01 0 1.02 0 0 Z " fill="#3F3F3F" transform="translate(128,80)"/>
<path d="M0 0 C2.92879371 0.62759865 5.36095629 1.58622659 8 3 C7.67 4.32 7.34 5.64 7 7 C5.35 6.67 3.7 6.34 2 6 C2 4.68 2 3.36 2 2 C1.34 2 0.68 2 0 2 C0 1.34 0 0.68 0 0 Z " fill="#E9F4F5" transform="translate(58,79)"/>
<path d="M0 0 C1.32 0 2.64 0 4 0 C3.67 0.99 3.34 1.98 3 3 C3.66 3.33 4.32 3.66 5 4 C4.67 5.32 4.34 6.64 4 8 C2.35 7.67 0.7 7.34 -1 7 C-0.34 6.34 0.32 5.68 1 5 C0.34 4.01 -0.32 3.02 -1 2 C-0.67 1.34 -0.34 0.68 0 0 Z " fill="#202020" transform="translate(178,103)"/>
<path d="M0 0 C0.99 0.33 1.98 0.66 3 1 C3 1.99 3 2.98 3 4 C3.66 4 4.32 4 5 4 C5.33 2.68 5.66 1.36 6 0 C6.66 0 7.32 0 8 0 C6.125 5.75 6.125 5.75 5 8 C4.34 8 3.68 8 3 8 C0 2.25 0 2.25 0 0 Z " fill="#242424" transform="translate(154,103)"/>
<path d="M0 0 C2.64 0 5.28 0 8 0 C8 1.32 8 2.64 8 4 C7.01 4 6.02 4 5 4 C5 3.34 5 2.68 5 2 C4.34 2 3.68 2 3 2 C2.34 3.32 1.68 4.64 1 6 C0.67 6 0.34 6 0 6 C0 4.02 0 2.04 0 0 Z " fill="#CECECE" transform="translate(115,105)"/>
<path d="M0 0 C0.33 0 0.66 0 1 0 C1.33 1.65 1.66 3.3 2 5 C2.99 5 3.98 5 5 5 C5 5.66 5 6.32 5 7 C-0.41538462 8.23076923 -0.41538462 8.23076923 -3.375 7.0625 C-3.91125 6.711875 -4.4475 6.36125 -5 6 C-4.67 5.34 -4.34 4.68 -4 4 C-2.02 4.495 -2.02 4.495 0 5 C0 3.35 0 1.7 0 0 Z " fill="#295AAB" transform="translate(55,93)"/>
<path d="M0 0 C1.1875 1.5625 1.1875 1.5625 2 4 C0.625 7.75 0.625 7.75 -1 11 C-1.99 10.01 -2.98 9.02 -4 8 C-2.25 2.25 -2.25 2.25 0 0 Z " fill="#CAE2F2" transform="translate(55,80)"/>
<path d="M0 0 C2.31 0 4.62 0 7 0 C7 1.32 7 2.64 7 4 C6.01 4.66 5.02 5.32 4 6 C3.01 5.67 2.02 5.34 1 5 C1.33 4.34 1.66 3.68 2 3 C1.34 2.67 0.68 2.34 0 2 C0 1.34 0 0.68 0 0 Z " fill="#F4F9F6" transform="translate(24,80)"/>
<path d="M0 0 C0.66 0 1.32 0 2 0 C2.66 1.98 3.32 3.96 4 6 C3.34 6 2.68 6 2 6 C2 7.65 2 9.3 2 11 C1.34 11 0.68 11 0 11 C0 7.37 0 3.74 0 0 Z " fill="#131211" transform="translate(75,100)"/>
<path d="M0 0 C0.99 0.33 1.98 0.66 3 1 C2.67 1.99 2.34 2.98 2 4 C2.99 4.99 3.98 5.98 5 7 C4.34 7 3.68 7 3 7 C2.67 7.66 2.34 8.32 2 9 C0.5 7.8125 0.5 7.8125 -1 6 C-1.25 3.375 -1.25 3.375 -1 1 C-0.67 0.67 -0.34 0.34 0 0 Z " fill="#D2E7F2" transform="translate(35,75)"/>
<path d="M0 0 C0.66 0 1.32 0 2 0 C2.66 1.65 3.32 3.3 4 5 C2.125 6.0625 2.125 6.0625 0 7 C-0.66 6.67 -1.32 6.34 -2 6 C-2 4.68 -2 3.36 -2 2 C-1.34 2 -0.68 2 0 2 C0 1.34 0 0.68 0 0 Z " fill="#DEDEDE" transform="translate(194,103)"/>
<path d="M0 0 C0 1.32 0 2.64 0 4 C-1.65 3.67 -3.3 3.34 -5 3 C-5.66 3.99 -6.32 4.98 -7 6 C-7 4.02 -7 2.04 -7 0 C-4.3333581 -1.33332095 -2.83319697 -0.67102033 0 0 Z " fill="#A7A7A7" transform="translate(100,105)"/>
<path d="M0 0 C0.99 0 1.98 0 3 0 C2.44271087 3.34373475 1.64826111 6.03312999 0 9 C-0.99 9 -1.98 9 -3 9 C-3 8.01 -3 7.02 -3 6 C-2.34 6 -1.68 6 -1 6 C-0.67 4.02 -0.34 2.04 0 0 Z " fill="#F2F6F6" transform="translate(65,103)"/>
<path d="M0 0 C1.32 0.66 2.64 1.32 4 2 C3.34 3.32 2.68 4.64 2 6 C0.68 5.34 -0.64 4.68 -2 4 C-1.34 2.68 -0.68 1.36 0 0 Z " fill="#E2E2E2" transform="translate(181,85)"/>
<path d="M0 0 C2.31 0 4.62 0 7 0 C7.33 0.99 7.66 1.98 8 3 C5.36 3 2.72 3 0 3 C0 2.01 0 1.02 0 0 Z " fill="#DAF3FD" transform="translate(43,105)"/>
<path d="M0 0 C1.65 0 3.3 0 5 0 C5 0.66 5 1.32 5 2 C4.01 2.495 4.01 2.495 3 3 C2.34444881 5.52733235 2.34444881 5.52733235 2 8 C1.34 8 0.68 8 0 8 C0 5.36 0 2.72 0 0 Z " fill="#3B3B3B" transform="translate(171,103)"/>
<path d="M0 0 C0 2.31 0 4.62 0 7 C-1.65 7 -3.3 7 -5 7 C-5 6.01 -5 5.02 -5 4 C-4.34 4 -3.68 4 -3 4 C-3 3.01 -3 2.02 -3 1 C-1 0 -1 0 0 0 Z " fill="#FDFCEB" transform="translate(27,92)"/>
<path d="M0 0 C1.65 1.32 3.3 2.64 5 4 C4.67 4.99 4.34 5.98 4 7 C1.69 6.01 -0.62 5.02 -3 4 C-2.67 3.34 -2.34 2.68 -2 2 C-1.34 2 -0.68 2 0 2 C0 1.34 0 0.68 0 0 Z " fill="#CBE5F3" transform="translate(31,82)"/>
<path d="M0 0 C7.26153846 -0.49230769 7.26153846 -0.49230769 11 2 C11.66 2.66 12.32 3.32 13 4 C12.01 4.33 11.02 4.66 10 5 C9.67 4.01 9.34 3.02 9 2 C8.01 2.33 7.02 2.66 6 3 C2.8125 2.0625 2.8125 2.0625 0 1 C0 0.67 0 0.34 0 0 Z " fill="#D6E4F8" transform="translate(42,111)"/>
<path d="M0 0 C-0.66 1.65 -1.32 3.3 -2 5 C-2.66 5 -3.32 5 -4 5 C-4.33 5.66 -4.66 6.32 -5 7 C-5.33 5.35 -5.66 3.7 -6 2 C-3 0 -3 0 0 0 Z " fill="#EAF6FB" transform="translate(38,108)"/>
<path d="M0 0 C0.33 0 0.66 0 1 0 C1 1.98 1 3.96 1 6 C3.97 6.495 3.97 6.495 7 7 C3.91190305 8.76462683 2.76687864 9 -1 9 C-0.67 6.03 -0.34 3.06 0 0 Z " fill="#3664B4" transform="translate(42,95)"/>
<path d="M0 0 C0.66 0 1.32 0 2 0 C1.67 2.97 1.34 5.94 1 9 C0.34 9 -0.32 9 -1 9 C-1.125 2.25 -1.125 2.25 0 0 Z " fill="#0D4190" transform="translate(54,89)"/>
<path d="M0 0 C0.99 0.33 1.98 0.66 3 1 C3 2.32 3 3.64 3 5 C1.35 4.67 -0.3 4.34 -2 4 C-1.34 2.68 -0.68 1.36 0 0 Z " fill="#EAEAEA" transform="translate(105,84)"/>
<path d="M0 0 C0.33 0 0.66 0 1 0 C1 2.31 1 4.62 1 7 C1.66 7 2.32 7 3 7 C3.33 7.99 3.66 8.98 4 10 C3.34 10.66 2.68 11.32 2 12 C-0.13586678 8.79619983 -0.23132175 7.98060033 -0.125 4.3125 C-0.10695312 3.50425781 -0.08890625 2.69601563 -0.0703125 1.86328125 C-0.04710937 1.24839844 -0.02390625 0.63351563 0 0 Z " fill="#E1F3FD" transform="translate(62,91)"/>
<path d="M0 0 C0.99 0.33 1.98 0.66 3 1 C2.34 2.32 1.68 3.64 1 5 C1.99 5.66 2.98 6.32 4 7 C2.35 6.67 0.7 6.34 -1 6 C-1.625 4.125 -1.625 4.125 -2 2 C-1.34 1.34 -0.68 0.68 0 0 Z " fill="#272727" transform="translate(103,83)"/>
<path d="M0 0 C0.66 0 1.32 0 2 0 C1.25 4.75 1.25 4.75 -1 7 C-1 6.34 -1 5.68 -1 5 C-1.66 4.67 -2.32 4.34 -3 4 C-1.625 2 -1.625 2 0 0 Z " fill="#DDECF7" transform="translate(32,102)"/>
<path d="M0 0 C1.32 0.33 2.64 0.66 4 1 C4 2.65 4 4.3 4 6 C3.67 5.34 3.34 4.68 3 4 C2.34 4 1.68 4 1 4 C0.67 4.66 0.34 5.32 0 6 C0 4.02 0 2.04 0 0 Z " fill="#AEC9F2" transform="translate(33,92)"/>
<path d="M0 0 C1.98 0 3.96 0 6 0 C5.67 1.32 5.34 2.64 5 4 C3.0625 3.6875 3.0625 3.6875 1 3 C0.67 2.01 0.34 1.02 0 0 Z " fill="#EDEDED" transform="translate(166,85)"/>
<path d="M0 0 C2.31 0.66 4.62 1.32 7 2 C6.67 2.66 6.34 3.32 6 4 C1.25 3.25 1.25 3.25 -1 1 C-0.67 0.67 -0.34 0.34 0 0 Z " fill="#E6F9FD" transform="translate(38,75)"/>
<path d="M0 0 C0.99 0 1.98 0 3 0 C3 0.66 3 1.32 3 2 C1.68 2.33 0.36 2.66 -1 3 C-1 3.99 -1 4.98 -1 6 C-1.99 6 -2.98 6 -4 6 C-4 5.34 -4 4.68 -4 4 C-3.34 4 -2.68 4 -2 4 C-1.34 2.68 -0.68 1.36 0 0 Z " fill="#3C3C3C" transform="translate(115,99)"/>
<path d="M0 0 C1.98 0 3.96 0 6 0 C6.33 1.65 6.66 3.3 7 5 C6.38125 4.2265625 6.38125 4.2265625 5.75 3.4375 C5.1725 2.963125 4.595 2.48875 4 2 C1.83700789 2.22757731 1.83700789 2.22757731 0 3 C0 2.01 0 1.02 0 0 Z " fill="#1A1A1A" transform="translate(179,84)"/>
</svg>
